<svg xmlns="http://www.w3.org/2000/svg" width="41.306" height="41.306" viewBox="0 0 41.306 41.306"><g transform="translate(-276.661 -651.491)"><path d="M308.168,673.087A9.9,9.9,0,1,0,318.047,683,9.945,9.945,0,0,0,308.168,673.087Zm2.851,14.628c-1.179,1.169-2.373,2.329-3.844,2.468-1.616.042-2.341-.8-2.075-2.069a27.5,27.5,0,0,1,1.62-4.532c.156-.388.316-.773.467-1.162.067-.171.1-.357-.071-.486a.416.416,0,0,0-.5.017c-.257.164-.5.349-.751.522-.137.095-.282.287-.44.054-.128-.188-.315-.375-.122-.647a4.581,4.581,0,0,1,4.025-1.5,1.7,1.7,0,0,1,1.371,2.047,4.4,4.4,0,0,1-.253.927q-.62,1.672-1.24,3.344c-.078.211-.152.424-.209.641s-.142.472.057.634c.228.184.423-.039.6-.161.275-.2.526-.423.792-.63.119-.092.247-.281.4-.1S311.238,687.5,311.019,687.715Zm-.91-8.485a1.69,1.69,0,0,1-1.686-1.643,2,2,0,0,1,2.021-1.866,1.617,1.617,0,0,1,1.691,1.653A1.987,1.987,0,0,1,310.109,679.23Z" transform="translate(-10.645 -10.652)" fill="#fefefe"></path><path d="M276.661,651.491V692.8h41.306V651.491Zm33.19,22.294c-.024.126-.051.251-.072.376a12.335,12.335,0,0,1-6.972,9.389,13.474,13.474,0,0,1-3.86,1.138h-2.9a2.338,2.338,0,0,0-.232-.058,12.3,12.3,0,0,1-9.039-6.05,12.961,12.961,0,0,1-1.632-4.8V670.89c.024-.126.051-.251.072-.376a12.336,12.336,0,0,1,6.972-9.389,13.477,13.477,0,0,1,3.86-1.138h2.9c.093.021.185.048.28.063a12.317,12.317,0,0,1,8.992,6.045,12.98,12.98,0,0,1,1.632,4.8Z" transform="translate(0 0)" fill="#fefefe"></path></g></svg>