<svg xmlns="http://www.w3.org/2000/svg" width="46.118" height="46.118" viewBox="0 0 46.118 46.118"><g transform="translate(-226.515 -280.881)"><path d="M226.515,280.881V327h46.118V280.881Zm40.737,41.485h0v.789H231.815V284.774h26.735s.349-.02.895,0h7.019v1.893a1.121,1.121,0,0,1,.042.22V300.24c0,.881-.883,1.55-2.1,1.726,1.832.211,2.851,1.2,2.851,2.078Z" fill="#fff"></path><path d="M269.736,309.156h-5.158v10.461H258.47v-25.8H246.982v31.16h22.754ZM249.551,323.8V294.948h6.108v25.144l9.007.024v3.71Z" transform="translate(-8.592 -5.429)" fill="#fff"></path><rect width="4.411" height="12.172" transform="translate(255.986 288.385)" fill="#fff"></rect></g></svg>