<svg xmlns="http://www.w3.org/2000/svg" width="42.259" height="42.259" viewBox="0 0 42.259 42.259"><g transform="translate(0 0)"><path d="M342.158,823.523q0,20.631.008,41.264c0,.309-.07.379-.379.379q-20.632-.013-41.264-.008a1.3,1.3,0,0,1-.616-1.253q.014-19.843.008-39.686c0-.991.313-1.3,1.3-1.3q19.843,0,39.686-.008A1.3,1.3,0,0,1,342.158,823.523Zm-13.63,34.882a5.073,5.073,0,0,0,3.789-1.768c.863-.94,1.8-1.812,2.7-2.718.5-.5.5-.841.012-1.335q-2.809-2.816-5.625-5.625c-.484-.482-.819-.484-1.3-.007-.752.744-1.5,1.5-2.245,2.244-.807.808-.822.839-1.847.349a17.665,17.665,0,0,1-8.708-9.231.487.487,0,0,1,.138-.618q1.351-1.33,2.684-2.679c.5-.5.5-.841,0-1.336q-2.8-2.8-5.6-5.6c-.514-.513-.842-.51-1.364.01-1.022,1.018-2.046,2.034-3.061,3.061a4.842,4.842,0,0,0-1.374,3.139,11.992,11.992,0,0,0,1.373,6.246,31.02,31.02,0,0,0,14.1,14.289A13.355,13.355,0,0,0,328.528,858.405Z" transform="translate(-299.906 -822.906)" fill="#fff"></path></g></svg>