<svg xmlns="http://www.w3.org/2000/svg" width="32.246" height="32.246" viewBox="0 0 32.246 32.246"><style type="text/css">.st0{fill:#1D1D1D;} </style><path d="M215,1036v32.246h32.246V1036Zm23.647,10.948c-.113.3-.223.38-.593.385-.634.009-1.269,0-1.9.019a.936.936,0,0,0-1.03.915c-.083.723-.019,1.451-.033,2.177,0,.107.059.15.16.148.052,0,.1,0,.155,0h2.583c.36,0,.512.14.543.49,0,.052,0,.1,0,.155q0,1.411,0,2.821a1.8,1.8,0,0,1-.027.309.388.388,0,0,1-.351.338,2.616,2.616,0,0,1-.348.023c-.8,0-1.593,0-2.389,0-.328,0-.328,0-.328.338q0,3.862,0,7.724a.658.658,0,0,1-.249.579h-3.73c-.26-.151-.274-.4-.273-.662q0-3.831,0-7.663c0-.308-.009-.316-.317-.317-.7,0-1.4,0-2.1,0-.419-.005-.58-.16-.582-.557q-.008-1.516,0-3.034c0-.385.167-.542.548-.543.712,0,1.424,0,2.136,0,.311,0,.308,0,.312-.314a25.711,25.711,0,0,1,.065-2.738,4.421,4.421,0,0,1,4.464-4.1c.918-.032,1.838,0,2.757-.009a.482.482,0,0,1,.524.366Z" transform="translate(-215 -1036)" fill="#fff"></path></svg>