<svg xmlns="http://www.w3.org/2000/svg" width="41.306" height="41.306" viewBox="0 0 41.306 41.306"><g transform="translate(-54.68 -651.245)"><path d="M94.561,678.267a4.394,4.394,0,0,0-2.512-.649,4.135,4.135,0,0,0-2.965.931,3.773,3.773,0,0,0-1.11,2.459l2.769.343a1.965,1.965,0,0,1,.425-1.171,1.13,1.13,0,0,1,.838-.335,1,1,0,0,1,.7.218.8.8,0,0,1,.232.61q0,.392-.578.863a14.33,14.33,0,0,0-1.4,1.256,2.482,2.482,0,0,0-.468.788,3.361,3.361,0,0,0-.157,1.124v.271h2.712a1.875,1.875,0,0,1,.189-.9,3.681,3.681,0,0,1,.91-.917,5.786,5.786,0,0,0,1.37-1.377,2.261,2.261,0,0,0,.335-1.171A2.7,2.7,0,0,0,94.561,678.267Z" transform="translate(-16.422 -13.008)" fill="#fefefe"></path><path d="M54.68,651.245v41.306H95.986V651.245Zm32.585,23.1c-.01,3.28-2.179,5.564-5.44,5.429a5.346,5.346,0,0,0-4.786,1.927,13.717,13.717,0,0,1-6.715,3.876,2.335,2.335,0,0,1-.373.076c-.043.006-.092-.033-.139-.052-.055-.219.115-.328.237-.443a10.312,10.312,0,0,0,2.5-4.612c.171-.528.054-.758-.54-.738-.872.029-1.745.007-2.617.007-3.094,0-4.7-1.129-5.724-4.015V664.714a5.508,5.508,0,0,1,3.852-3.848H83.237c2.826.962,4.027,2.638,4.029,5.631C87.269,669.111,87.273,671.726,87.265,674.341Z" transform="translate(0)" fill="#fefefe"></path><rect width="2.905" height="2.562" transform="translate(73.829 672.688)" fill="#fefefe"></rect></g></svg>