<svg xmlns="http://www.w3.org/2000/svg" width="126.246" height="50.326" viewBox="0 0 126.246 50.326"><g id="Group_64" data-name="Group 64" transform="translate(0 0)"><g id="Group_61" data-name="Group 61" transform="translate(8.664 8.023)"><g id="Group_60" data-name="Group 60" transform="translate(0)"><path id="Path_142" data-name="Path 142" d="M110.557,435.052V401.538h4.561v29.6H117.4v3.91Z" transform="translate(-110.557 -401.212)" fill="#fff"></path><path id="Path_143" data-name="Path 143" d="M129.732,435.137a11.582,11.582,0,0,1-5.027-1.024V402.182a11.591,11.591,0,0,1,5.027-1.024,11.385,11.385,0,0,1,4.98,1.024v31.932A11.376,11.376,0,0,1,129.732,435.137ZM130.2,404.6a.842.842,0,0,0-.466-.093.768.768,0,0,0-.466.093v27.091a.772.772,0,0,0,.466.092.846.846,0,0,0,.466-.092Z" transform="translate(-116.047 -401.065)" fill="#fff"></path><path id="Path_144" data-name="Path 144" d="M149.974,435.052V419.738a1.042,1.042,0,0,0-.791-.326h-.14v15.64h-4.561V401.538h4.561v14.523h.14a1.1,1.1,0,0,0,.745-.28V401.538h4.561v15.128a8.513,8.513,0,0,1-2.514,1.024,8.557,8.557,0,0,1,2.514,1v16.366Z" transform="translate(-123.722 -401.212)" fill="#fff"></path><path id="Path_145" data-name="Path 145" d="M169.75,435.052V419.738a1.04,1.04,0,0,0-.791-.326h-.14v15.64h-4.561V401.538h4.561v14.523h.14a1.1,1.1,0,0,0,.745-.28V401.538h4.561v15.128a8.516,8.516,0,0,1-2.513,1.024,8.559,8.559,0,0,1,2.513,1v16.366Z" transform="translate(-131.396 -401.212)" fill="#fff"></path><path id="Path_146" data-name="Path 146" d="M189.528,434.9v-14.15H188.6V434.9h-4.561V402.182a11.591,11.591,0,0,1,5.027-1.024,11.389,11.389,0,0,1,4.981,1.024V434.9Zm0-30.441a.841.841,0,0,0-.466-.093.767.767,0,0,0-.466.093V417.45h.931Z" transform="translate(-139.071 -401.065)" fill="#fff"></path><path id="Path_147" data-name="Path 147" d="M209.3,435.052V419.924a1.235,1.235,0,0,0-.791-.28h-.14v15.407h-4.561V401.538h4.748a9.9,9.9,0,0,1,5.26,1.257v13.871a8.512,8.512,0,0,1-2.514,1.024,8.556,8.556,0,0,1,2.514,1v16.366Zm-.046-30.255a.918.918,0,0,0-.745-.279h-.14v12.148h.14a1.1,1.1,0,0,0,.745-.279Z" transform="translate(-146.745 -401.212)" fill="#fff"></path><path id="Path_148" data-name="Path 148" d="M228.615,435.137a11.582,11.582,0,0,1-5.027-1.024V402.182a11.591,11.591,0,0,1,5.027-1.024,11.385,11.385,0,0,1,4.98,1.024v31.932A11.376,11.376,0,0,1,228.615,435.137Zm.465-30.535a.838.838,0,0,0-.465-.093.767.767,0,0,0-.466.093v27.091a.771.771,0,0,0,.466.092.843.843,0,0,0,.465-.092Z" transform="translate(-154.42 -401.065)" fill="#fff"></path><path id="Path_149" data-name="Path 149" d="M248.391,435.137a11.584,11.584,0,0,1-5.027-1.024V402.182a11.593,11.593,0,0,1,5.027-1.024,11.389,11.389,0,0,1,4.981,1.024v31.932A11.38,11.38,0,0,1,248.391,435.137Zm.466-30.535a.842.842,0,0,0-.466-.093.768.768,0,0,0-.466.093v27.091a.772.772,0,0,0,.466.092.846.846,0,0,0,.466-.092Z" transform="translate(-162.094 -401.065)" fill="#fff"></path><path id="Path_150" data-name="Path 150" d="M273.941,434.846V404.5a2.822,2.822,0,0,0-.931-.139v30.488h-4.468V404.358a2.822,2.822,0,0,0-.931.139v30.349h-4.468V402.17a25.616,25.616,0,0,1,15.268,0v32.676Z" transform="translate(-169.769 -401.006)" fill="#fff"></path></g></g><g id="Group_485" data-name="Group 485"><path id="Path_151" data-name="Path 151" d="M222.644,438.221H96.4V387.9H222.644Zm-123.186-3.06H219.584V390.955H99.458Z" transform="translate(-96.398 -387.895)" fill="#fff"></path></g></g></svg>