<svg xmlns="http://www.w3.org/2000/svg" width="32.246" height="32.246" viewBox="0 0 32.246 32.246"><path d="M388.194,1054.547a5.982,5.982,0,0,0-.045-.814,3.978,3.978,0,0,0-3.744-3.336c-3.3-.016-6.6-.006-9.894-.008a4.194,4.194,0,0,0-.563.046,3.973,3.973,0,0,0-3.336,3.742c-.016,3.3-.005,6.61-.007,9.914a3.94,3.94,0,0,0,3.787,3.878c3.3.016,6.6.006,9.894.007a4.114,4.114,0,0,0,.563-.045,3.982,3.982,0,0,0,3.337-3.742c.017-1.67,0-3.339,0-5.009h0Q388.195,1056.863,388.194,1054.547Zm-8.806,10.185a5.549,5.549,0,1,1,5.56-5.554A5.55,5.55,0,0,1,379.388,1064.732Zm5.769-9.889a1.408,1.408,0,0,1-1.411-1.41,1.418,1.418,0,1,1,2.835.011A1.41,1.41,0,0,1,385.157,1054.844Z" transform="translate(-363.293 -1042.655)" fill="#fff"></path><path d="M383.893,1060.066a3.594,3.594,0,1,0,3.578,3.595A3.585,3.585,0,0,0,383.893,1060.066Z" transform="translate(-367.77 -1047.132)" fill="#fff"></path><path d="M357,1036v32.246h32.246V1036Zm26.853,21.522a5.357,5.357,0,0,1-.31,1.724,5.989,5.989,0,0,1-5.714,4.037c-3.15-.027-6.3-.006-9.451-.007a5.44,5.44,0,0,1-.836-.043,5.9,5.9,0,0,1-4.6-3.335,6.444,6.444,0,0,1-.564-1.92v-10.9c.021-.11.043-.219.064-.328a5.873,5.873,0,0,1,3.262-4.373,6.376,6.376,0,0,1,1.956-.581h10.9a6.2,6.2,0,0,1,2.014.61,5.693,5.693,0,0,1,3.265,5.121C383.9,1050.858,383.854,1054.19,383.853,1057.522Z" transform="translate(-357 -1036)" fill="#fff"></path></svg>