<svg xmlns="http://www.w3.org/2000/svg" width="46.118" height="46.118" viewBox="0 0 46.118 46.118"><g transform="translate(-228.071 -461)"><path d="M228.071,461v46.118h46.118V461ZM268.9,501.76H233.446V466.308H268.9Z" transform="translate(0)" fill="#fff"></path><path d="M241.1,473.909v31.356h31.356V473.909Zm28.737,23.785c-2.156,1.241-4.3,2.5-6.455,3.744-.841.487-1.681.974-2.534,1.439a1.778,1.778,0,0,1-2.658-1.554c-.011-.441-.017-.884,0-1.325.014-.345-.121-.5-.465-.458a.385.385,0,0,1-.044,0h-3.755v0c-1.164,0-2.328.039-3.49-.009a8.9,8.9,0,0,1-4.954-1.655,7.106,7.106,0,0,1-2.578-4.2,14.248,14.248,0,0,1-.346-4.21c.005-.139-.025-.323.156-.376.149-.043.233.1.319.194a9.33,9.33,0,0,0,7.308,3.236c2.43.018,4.86,0,7.29.012.411,0,.6-.1.562-.544a11.774,11.774,0,0,1,0-1.236,1.755,1.755,0,0,1,2.585-1.556c1.03.535,2.024,1.143,3.03,1.723,2.014,1.161,4.023,2.332,6.043,3.483a1.837,1.837,0,0,1-.013,3.3Zm1.022-8.128c-.006.13.011.294-.123.357-.17.079-.268-.083-.36-.186a9.174,9.174,0,0,0-4.114-2.711,9.64,9.64,0,0,0-2.861-.487c-2.561-.011-5.122,0-7.684-.017-.4,0-.517.145-.493.52s.01.765.006,1.148a1.8,1.8,0,0,1-2.809,1.575c-1.251-.713-2.494-1.442-3.742-2.163-1.707-.988-3.418-1.967-5.119-2.964a1.794,1.794,0,0,1-.041-3.237c2.446-1.439,4.912-2.846,7.369-4.266.561-.324,1.109-.671,1.685-.963a1.779,1.779,0,0,1,2.655,1.6c.01.441.016.884,0,1.324-.014.313.112.408.413.405,1.3-.011,2.591,0,3.886,0v.012c1.163,0,2.327-.039,3.488.009a9.06,9.06,0,0,1,4.984,1.692,6.677,6.677,0,0,1,2.351,3.593A13.4,13.4,0,0,1,270.856,489.565Z" transform="translate(-5.604 -5.553)" fill="#fff"></path></g></svg>