<svg xmlns="http://www.w3.org/2000/svg" width="32.246" height="32.246" viewBox="0 0 32.246 32.246"><style type="text/css">.st0{fill:#1D1D1D;} </style><path d="M286,1036v32.246h32.246V1036Zm26.63,10.709a7.791,7.791,0,0,1-1.13,1.054.509.509,0,0,0-.222.452,13.232,13.232,0,0,1-3.555,9.172,11.865,11.865,0,0,1-6.912,3.683,12.859,12.859,0,0,1-7.162-.8,11,11,0,0,1-1.616-.817.676.676,0,0,1-.264-.2c.184-.081.34,0,.5.005a8.94,8.94,0,0,0,5.15-1.3c.213-.13.417-.276.623-.416.039-.026.093-.052.076-.109s-.078-.046-.125-.051a4.431,4.431,0,0,1-3.3-1.913,4.5,4.5,0,0,1-.487-.916c-.1-.251-.065-.3.207-.261a4.5,4.5,0,0,0,1.543-.076c-.306-.121-.564-.219-.817-.326a4.5,4.5,0,0,1-2.586-3.8c0-.315.03-.339.309-.2a4.18,4.18,0,0,0,1.223.365.4.4,0,0,0,.282-.015c-.024-.089-.1-.128-.16-.177a4.49,4.49,0,0,1-1.123-5.54c.1-.2.2-.11.283,0a11.143,11.143,0,0,0,.985,1.031,12.177,12.177,0,0,0,4.255,2.659,12.839,12.839,0,0,0,3.528.784c.246.021.22-.1.2-.258a4.387,4.387,0,0,1,.644-3.125,4.468,4.468,0,0,1,6.685-1.008.8.8,0,0,0,.857.217,9.812,9.812,0,0,0,2.08-.841c.066-.038.147-.12.216-.063s-.005.149-.033.22a4.349,4.349,0,0,1-1.541,2c-.044.032-.087.066-.181.139a10.173,10.173,0,0,0,2.344-.593A4.989,4.989,0,0,1,312.63,1046.709Z" transform="translate(-286 -1036)" fill="#fff"></path></svg>