<svg xmlns="http://www.w3.org/2000/svg" width="41.862" height="41.862" viewBox="0 0 41.862 41.862"><path d="M145.411,457.457v41.862h41.862V457.457Zm2.8,12.451a.615.615,0,0,1,.092-.947c1.972-1.9,3.924-3.817,5.885-5.726.606-.592.613-.588,1.062.092.675,1.021,1.4,2.011,2.009,3.071a4.935,4.935,0,0,0,4,2.485c2.342.288,4.672.687,7.018.942a7.2,7.2,0,0,1,4.936,2.925,40.281,40.281,0,0,1,2.671,4.338c.2.318.092.451-.264.449-.808,0-1.618,0-2.426,0v0c-.395,0-.79-.018-1.182,0a2.543,2.543,0,0,1-2.349-.754,2.749,2.749,0,0,0-2.065-.728c-1.1-.036-2.2-.031-3.3,0-.439.013-.973,0-1.15.541a1.162,1.162,0,0,0,.533,1.352c.972.706,1.962,1.39,2.943,2.083a8.238,8.238,0,0,1,1.865,1.631,2.069,2.069,0,0,1,.487,1.188,1.45,1.45,0,0,1-2.209,1.349q-3.029-1.3-6.039-2.639c-1.477-.656-3-1.208-4.414-2a12.944,12.944,0,0,1-4.459-4.161C150.636,473.574,149.443,471.728,148.212,469.908Zm23.5,12.467,1.891,1.891-6.434,6.433-.259-.259-3.815-3.661,1.852-1.929,2.19,2.1Zm10.24,11.189c-.166,0-.331,0-.5,0H153.71c-.062,0-.125,0-.187,0-.8-.008-.834-.048-.634-.808.184-.7.4-1.395.554-2.1.1-.444.308-.639.767-.611.413.025.831-.021,1.242.01.531.041.675-.193.672-.693-.018-2.426-.008-4.851-.008-7.277,0-.167,0-.333,0-.5,0-.38.156-.495.5-.32l.056.026c1.5.665,1.224.338,1.234,1.814q.022,3.98-.007,7.962c0,.541.151.711.7.711q8.988-.027,17.975,0c.513,0,.68-.156.677-.672q-.027-4.976,0-9.953c0-.533-.2-.672-.695-.667-2.135.016-4.271,0-6.406.013a1.707,1.707,0,0,1-1.339-.493,16.012,16.012,0,0,0-1.436-1.155.793.793,0,0,1,.656-.147q5.1-.007,10.2,0c.81,0,.813,0,.815.849,0,3.234.015,6.469-.013,9.7,0,.629.18.811.81.815,2.065.01,1.573-.372,2.17,1.68.121.416.2.847.324,1.264C182.463,493.39,182.34,493.563,181.948,493.563Z" transform="translate(-145.411 -457.457)" fill="#fff"></path></svg>